<?xml version="1.0" encoding="iso-8859-1"?>
<!-- Uploaded to: SVG Repo, www.svgrepo.com, Generator: SVG Repo Mixer Tools -->
<svg fill="#000000" height="800px" width="800px" version="1.1" id="Layer_1" xmlns="http://www.w3.org/2000/svg" xmlns:xlink="http://www.w3.org/1999/xlink" 
	 viewBox="0 0 512 512" xml:space="preserve">
<g>
	<g>
		<path d="M405.038,0H106.962c-4.199,0-7.604,3.404-7.604,7.604v496.792c0,4.2,3.404,7.604,7.604,7.604h298.075
			c4.2,0,7.604-3.404,7.604-7.604V203.374v-57.508V7.604C412.642,3.404,409.237,0,405.038,0z M397.434,195.77h-34.984v-42.3h34.984
			V195.77z M397.434,138.261h-34.984V52.589c0-4.2-3.404-7.604-7.604-7.604H150.84c-4.2,0-7.604,3.404-7.604,7.604v249.91
			c0,4.2,3.404,7.604,7.604,7.604h204.005c4.2,0,7.604-3.404,7.604-7.604v-91.522h34.984v285.816H114.566V15.208h282.867V138.261z
			 M347.241,60.193v85.672v57.508v91.522H158.444V60.193H347.241z"/>
	</g>
</g>
<g>
	<g>
		<path d="M212.803,75.311h-35.331c-4.2,0-7.604,3.404-7.604,7.604v43.081c0,4.2,3.404,7.604,7.604,7.604h35.331
			c4.2,0,7.604-3.404,7.604-7.604V82.915C220.407,78.714,217.004,75.311,212.803,75.311z M205.199,118.392h-20.123V90.519h20.123
			V118.392z"/>
	</g>
</g>
<g>
	<g>
		<path d="M269.903,75.311h-35.331c-4.2,0-7.604,3.404-7.604,7.604v43.081c0,4.2,3.404,7.604,7.604,7.604h35.331
			c4.2,0,7.604-3.404,7.604-7.604V82.915C277.507,78.714,274.103,75.311,269.903,75.311z M262.299,118.392h-20.123V90.519h20.123
			V118.392z"/>
	</g>
</g>
<g>
	<g>
		<path d="M327.001,75.311H291.67c-4.2,0-7.604,3.404-7.604,7.604v43.081c0,4.2,3.405,7.604,7.604,7.604h35.331
			c4.2,0,7.604-3.404,7.604-7.604V82.915C334.605,78.714,331.201,75.311,327.001,75.311z M319.397,118.392h-20.123V90.519h20.123
			V118.392z"/>
	</g>
</g>
<g>
	<g>
		<path d="M212.803,146.739h-35.331c-4.2,0-7.604,3.404-7.604,7.604v43.081c0,4.199,3.404,7.604,7.604,7.604h35.331
			c4.2,0,7.604-3.404,7.604-7.604v-43.081C220.407,150.143,217.004,146.739,212.803,146.739z M205.199,189.819h-20.123v-27.873
			h20.123V189.819z"/>
	</g>
</g>
<g>
	<g>
		<path d="M269.903,146.739h-35.331c-4.2,0-7.604,3.404-7.604,7.604v43.081c0,4.199,3.404,7.604,7.604,7.604h35.331
			c4.2,0,7.604-3.404,7.604-7.604v-43.081C277.507,150.143,274.103,146.739,269.903,146.739z M262.299,189.819h-20.123v-27.873
			h20.123V189.819z"/>
	</g>
</g>
<g>
	<g>
		<path d="M327.001,146.739H291.67c-4.2,0-7.604,3.404-7.604,7.604v43.081c0,4.199,3.405,7.604,7.604,7.604h35.331
			c4.2,0,7.604-3.404,7.604-7.604v-43.081C334.605,150.143,331.201,146.739,327.001,146.739z M319.397,189.819h-20.123v-27.873
			h20.123V189.819z"/>
	</g>
</g>
<g>
	<g>
		<path d="M212.803,218.168h-35.331c-4.2,0-7.604,3.404-7.604,7.604v43.08c0,4.199,3.404,7.604,7.604,7.604h35.331
			c4.2,0,7.604-3.404,7.604-7.604v-43.08C220.407,221.571,217.004,218.168,212.803,218.168z M205.199,261.248h-20.123v-27.872
			h20.123V261.248z"/>
	</g>
</g>
<g>
	<g>
		<path d="M269.903,218.168h-35.331c-4.2,0-7.604,3.404-7.604,7.604v43.08c0,4.199,3.404,7.604,7.604,7.604h35.331
			c4.2,0,7.604-3.404,7.604-7.604v-43.08C277.507,221.571,274.103,218.168,269.903,218.168z M262.299,261.248h-20.123v-27.872
			h20.123V261.248z"/>
	</g>
</g>
<g>
	<g>
		<path d="M327.001,218.168H291.67c-4.2,0-7.604,3.404-7.604,7.604v43.08c0,4.199,3.405,7.604,7.604,7.604h35.331
			c4.2,0,7.604-3.404,7.604-7.604v-43.08C334.605,221.571,331.201,218.168,327.001,218.168z M319.397,261.248h-20.123v-27.872
			h20.123V261.248z"/>
	</g>
</g>
<g>
	<g>
		<path d="M362.442,353.54c0-0.086-0.008-0.172-0.012-0.259c-0.01-0.22-0.028-0.437-0.058-0.651
			c-0.011-0.086-0.024-0.172-0.04-0.259c-0.041-0.239-0.092-0.474-0.155-0.706c-0.014-0.054-0.026-0.108-0.042-0.162
			c-0.088-0.298-0.191-0.589-0.313-0.871c-0.005-0.013-0.012-0.025-0.018-0.037c-0.117-0.265-0.249-0.519-0.394-0.766
			c-0.016-0.028-0.027-0.059-0.045-0.087c-0.02-0.033-0.046-0.063-0.067-0.096c-0.132-0.212-0.274-0.418-0.426-0.615
			c-0.036-0.048-0.07-0.096-0.107-0.143c-0.186-0.231-0.384-0.451-0.595-0.659c-0.042-0.042-0.087-0.078-0.13-0.118
			c-0.174-0.163-0.356-0.318-0.544-0.465c-0.066-0.051-0.132-0.1-0.2-0.149c-0.196-0.142-0.398-0.274-0.607-0.397
			c-0.046-0.026-0.089-0.057-0.136-0.082c-0.264-0.148-0.537-0.281-0.819-0.397c-0.025-0.01-0.052-0.018-0.077-0.028
			c-0.248-0.099-0.504-0.184-0.764-0.257c-0.074-0.021-0.149-0.039-0.225-0.058c-0.222-0.055-0.448-0.099-0.678-0.134
			c-0.079-0.012-0.157-0.026-0.237-0.036c-0.299-0.036-0.602-0.06-0.91-0.06H150.84c-0.308,0-0.611,0.023-0.91,0.06
			c-0.08,0.009-0.158,0.024-0.237,0.036c-0.229,0.034-0.455,0.079-0.678,0.134c-0.075,0.018-0.15,0.036-0.225,0.058
			c-0.261,0.073-0.515,0.157-0.763,0.257c-0.025,0.01-0.053,0.018-0.078,0.028c-0.282,0.117-0.556,0.249-0.819,0.397
			c-0.047,0.026-0.09,0.056-0.136,0.082c-0.209,0.123-0.412,0.255-0.607,0.397c-0.067,0.049-0.134,0.098-0.2,0.149
			c-0.19,0.147-0.37,0.302-0.544,0.465c-0.043,0.041-0.088,0.077-0.13,0.118c-0.211,0.208-0.41,0.428-0.595,0.659
			c-0.038,0.047-0.071,0.095-0.107,0.143c-0.152,0.198-0.293,0.403-0.426,0.615c-0.02,0.033-0.047,0.063-0.067,0.096
			c-0.017,0.028-0.028,0.059-0.045,0.087c-0.144,0.247-0.277,0.501-0.393,0.765c-0.006,0.013-0.013,0.026-0.019,0.04
			c-0.122,0.282-0.225,0.573-0.312,0.871c-0.016,0.054-0.027,0.109-0.042,0.162c-0.063,0.231-0.115,0.466-0.155,0.706
			c-0.015,0.086-0.027,0.172-0.04,0.259c-0.028,0.215-0.047,0.432-0.058,0.651c-0.004,0.086-0.012,0.172-0.013,0.26
			c0,0.037-0.005,0.072-0.005,0.11v117.883c0,4.2,3.404,7.604,7.604,7.604h204.005c4.2,0,7.604-3.404,7.604-7.604V353.649
			C362.447,353.613,362.442,353.577,362.442,353.54z M342.159,361.253l-22.287,41.697H185.813l-22.287-41.697H342.159z
			 M347.241,463.928H158.444v-79.922l16.106,30.133c1.323,2.474,3.9,4.02,6.706,4.02H324.43c2.806,0,5.384-1.545,6.706-4.02
			l16.106-30.133V463.928z"/>
	</g>
</g>
<g>
	<g>
		<path d="M379.941,158.048c-4.2,0-7.604,3.404-7.604,7.604v17.935c0,4.2,3.404,7.604,7.604,7.604s7.604-3.404,7.604-7.604v-17.935
			C387.545,161.451,384.142,158.048,379.941,158.048z"/>
	</g>
</g>
</svg>